<svg xmlns="http://www.w3.org/2000/svg">
    <defs>
        <pattern id="puzzle" width="120" height="120" patternUnits="userSpaceOnUse">
            <path d="M17.02 120.15c-9.08.02-15.04-7.71-14.48-14.96s4.88-14.78 14.48-14.96c10.85-.2 17.46 8.1 32.61 16.23 12.06 6.47 13.44-40.35 24.12-34.69 13.6 7.21 23.29 18.81 30.31 18.46 7.02-.35 14.5-7.59 14.48-15.27s-5.66-14.8-14.48-14.81c8.8 0 14.61-7.69 14.48-14.96-.13-7.27-6.73-15.2-14.48-15.27S86.16 40.37 72.92 47.7c-5.41 2.99-15.96-35.91-24.71-30.05-18.12 12.14-24.12 12.58-31.19 12.58-9.84 0-14.51-7.82-14.48-15.27S8.06-.06 17.02 0" fill="none" stroke="white" stroke-miterlimit="10"/>
        </pattern>
    </defs>
    <g>
        <rect fill="url(#puzzle)" width="100%" height="100%"></rect>
    </g>
</svg>

